<?xml version="1.0" standalone="no"?><!DOCTYPE svg PUBLIC "-//W3C//DTD SVG 1.1//EN" "http://www.w3.org/Graphics/SVG/1.1/DTD/svg11.dtd"><svg t="1548838142249" class="icon" style="" viewBox="0 0 1024 1024" version="1.1" xmlns="http://www.w3.org/2000/svg" p-id="5093" data-spm-anchor-id="a313x.7781069.0.i10" xmlns:xlink="http://www.w3.org/1999/xlink" width="200" height="200"><defs><style type="text/css">html, * { user-select: text !important; }
html, * {  }
</style></defs><path d="M328.533333 482.133333H211.2c-83.2 0-151.466667-68.266667-151.466667-151.466666V211.2C59.733333 128 128 59.733333 211.2 59.733333h117.333333c83.2 0 151.466667 68.266667 151.466667 151.466667v117.333333c2.133333 85.333333-66.133333 153.6-151.466667 153.6zM211.2 123.733333c-49.066667 0-87.466667 40.533333-87.466667 87.466667v117.333333c0 49.066667 40.533333 87.466667 87.466667 87.466667h117.333333c49.066667 0 87.466667-40.533333 87.466667-87.466667V211.2c0-49.066667-40.533333-87.466667-87.466667-87.466667H211.2zM810.666667 482.133333h-117.333334c-83.2 0-151.466667-68.266667-151.466666-151.466666V211.2c0-83.2 68.266667-151.466667 151.466666-151.466667H810.666667c83.2 0 151.466667 68.266667 151.466666 151.466667v117.333333c0 85.333333-68.266667 153.6-151.466666 153.6zM693.333333 123.733333c-49.066667 0-87.466667 40.533333-87.466666 87.466667v117.333333c0 49.066667 40.533333 87.466667 87.466666 87.466667H810.666667c49.066667 0 87.466667-40.533333 87.466666-87.466667V211.2c0-49.066667-40.533333-87.466667-87.466666-87.466667h-117.333334zM328.533333 964.266667H211.2c-83.2 0-151.466667-68.266667-151.466667-151.466667v-117.333333c0-83.2 68.266667-151.466667 151.466667-151.466667h117.333333c83.2 0 151.466667 68.266667 151.466667 151.466667v117.333333c2.133333 83.2-66.133333 151.466667-151.466667 151.466667zM211.2 605.866667c-49.066667 0-87.466667 40.533333-87.466667 87.466666V810.666667c0 49.066667 40.533333 87.466667 87.466667 87.466666h117.333333c49.066667 0 87.466667-40.533333 87.466667-87.466666v-117.333334c0-49.066667-40.533333-87.466667-87.466667-87.466666H211.2z" fill="#707070" p-id="5094" data-spm-anchor-id="a313x.7781069.0.i8" class=""></path><path d="M906.666667 654.933333H603.733333c-17.066667 0-32-14.933333-32-32s14.933333-32 32-32h305.066667c17.066667 0 32 14.933333 32 32s-17.066667 32-34.133333 32zM855.466667 797.866667H603.733333c-17.066667 0-32-14.933333-32-32s14.933333-32 32-32h251.733334c17.066667 0 32 14.933333 32 32s-14.933333 32-32 32zM729.6 942.933333h-125.866667c-17.066667 0-32-14.933333-32-32s14.933333-32 32-32h125.866667c17.066667 0 32 14.933333 32 32s-14.933333 32-32 32z" fill="#f4ea2a" p-id="5095" data-spm-anchor-id="a313x.7781069.0.i9" class=""></path></svg>