<?xml version="1.0" standalone="no"?><!DOCTYPE svg PUBLIC "-//W3C//DTD SVG 1.1//EN" "http://www.w3.org/Graphics/SVG/1.1/DTD/svg11.dtd"><svg t="1548813251930" class="icon" style="" viewBox="0 0 1024 1024" version="1.1" xmlns="http://www.w3.org/2000/svg" p-id="7010" xmlns:xlink="http://www.w3.org/1999/xlink" width="200" height="200"><defs><style type="text/css">html, * { user-select: text !important; }
html, * {  }
</style></defs><path d="M214.181 457.694c19.094 0 34.59-15.496 34.59-34.59 0-122.448 71.809-218.885 191.905-257.764 16.326-5.258 26.288-21.861 23.383-38.741-0.415-2.767-0.692-5.396-0.692-8.025 0-27.257 25.043-49.394 55.897-49.394 30.854 0 55.897 22.138 55.897 49.394 0 2.629-0.277 5.258-0.692 7.748-3.044 17.157 7.195 33.898 23.936 39.017 122.033 37.357 191.905 131.165 191.905 257.626 0 19.094 15.496 34.59 34.59 34.59s34.59-15.496 34.59-34.59c0-147.63-80.11-263.714-215.703-315.183-5.673-60.325-59.356-107.782-124.524-107.782-65.444 0-119.266 47.734-124.662 108.336-133.379 53.407-215.011 171.704-215.011 314.768 0 19.094 15.496 34.59 34.59 34.59v0z" p-id="7011"></path><path d="M859.905 595.5v-61.847c0-19.094-15.496-34.59-34.59-34.59s-34.59 15.496-34.59 34.59v75.268c0 8.578 3.182 17.018 9.132 23.383 44.413 48.426 95.607 110.134 105.292 129.366-0.415 12.037-3.736 14.943-36.112 14.943h-698.855c-29.886 0-35.005-8.025-35.974-15.22 10.1-19.647 61.293-80.94 105.707-129.090 5.811-6.365 9.132-14.666 9.132-23.383v-75.268c0-19.094-15.496-34.59-34.59-34.59s-34.59 15.496-34.59 34.59v61.847c-114.977 126.184-114.977 149.982-114.977 161.604 0 42.892 27.672 88.689 105.292 88.689h698.855c26.012 0 105.292 0 105.292-88.689 0-11.622 0-35.558-114.423-161.604v0z" p-id="7012"></path><path d="M618.329 877.477c-16.742-9.132-37.772-2.906-46.904 13.974-10.239 18.955-30.162 30.716-51.885 30.716-21.584 0-41.508-11.761-51.885-30.854-9.132-16.742-30.162-22.968-46.904-13.836-16.742 9.132-22.968 30.162-13.836 46.904 22.414 41.231 65.582 66.966 112.625 66.966 47.042 0 90.349-25.597 112.625-66.966 9.132-16.88 2.906-37.911-13.836-46.904v0z" p-id="7013" data-spm-anchor-id="a313x.7781069.0.i3" class="selected" fill="#f4ea2a"></path></svg>