<?xml version="1.0" standalone="no"?><!DOCTYPE svg PUBLIC "-//W3C//DTD SVG 1.1//EN" "http://www.w3.org/Graphics/SVG/1.1/DTD/svg11.dtd"><svg t="1548814314009" class="icon" style="" viewBox="0 0 1024 1024" version="1.1" xmlns="http://www.w3.org/2000/svg" p-id="8304" xmlns:xlink="http://www.w3.org/1999/xlink" width="200" height="200"><defs><style type="text/css">html, * { user-select: text !important; }
html, * {  }
</style></defs><path d="M904.460688 597.237208v358.33741a34.127372 34.127372 0 0 1-34.127372 34.127373H153.658495a34.127372 34.127372 0 0 1-34.127372-34.127373V597.237208h784.929565m34.127373-34.127373H85.40375v392.464783a68.254745 68.254745 0 0 0 68.254745 68.254745h716.674821a68.254745 68.254745 0 0 0 68.254745-68.254745V563.109835z" fill="#333333" p-id="8305"></path><path d="M762.661456 79.013058l-8.873117 33.103551L836.205943 134.128764l8.873117-32.932914-82.417604-22.182792z" fill="#19A764" p-id="8306"></path><path d="M792.35227 34.135563l66.036465 17.063686-114.838608 428.639798-65.865829-17.063686L792.35227 34.135563m0-34.127372a34.127372 34.127372 0 0 0-32.932915 25.254255l-114.838608 428.127887A34.127372 34.127372 0 0 0 668.811182 494.855091l65.865828 17.063686a34.127372 34.127372 0 0 0 41.806032-24.059798l114.838608-427.274702a34.127372 34.127372 0 0 0-24.230435-41.806032L802.078571 1.202649a34.127372 34.127372 0 0 0-9.726301-1.194458z" fill="#f4ea2a" p-id="8307" data-spm-anchor-id="a313x.7781069.0.i9" class=""></path><path d="M417.633721 142.660607l-196.914939 52.21488 8.70248 32.591641 196.914939-52.21488-8.70248-32.591641zM443.911797 240.264892l-196.914938 52.21488 8.873116 32.591641 196.914939-52.385517-8.873117-32.421004zM470.360511 337.869178l-196.914939 52.214879 8.70248 32.591641 196.914939-52.385517-8.70248-32.421003z" fill="#333333" p-id="8308"></path><path d="M432.820401 35.671295a34.127372 34.127372 0 0 1 32.591641 24.742345l96.751101 358.33741a32.591641 32.591641 0 0 1-3.242101 24.912982 34.127372 34.127372 0 0 1-20.64706 15.698591L275.834488 528.982463a34.127372 34.127372 0 0 1-8.873117 1.194458 34.127372 34.127372 0 0 1-32.59164-24.742345l-96.751101-358.33741a32.591641 32.591641 0 0 1 3.2421-24.912982 34.127372 34.127372 0 0 1 20.647061-15.698591l262.439494-69.61984a34.127372 34.127372 0 0 1 8.873116-1.194458m0-34.127373a68.254745 68.254745 0 0 0-17.063686 2.388916L152.634674 73.552678a67.230924 67.230924 0 0 0-48.119595 82.417605l96.751101 358.33741A68.254745 68.254745 0 0 0 266.961371 563.109835a68.254745 68.254745 0 0 0 17.063687-2.388916l262.61013-69.790476A67.230924 67.230924 0 0 0 595.266694 409.53666L498.515593 51.199249A68.254745 68.254745 0 0 0 432.820401 1.543922z" fill="#333333" p-id="8309"></path><path d="M68.340064 358.345601h887.311683a68.254745 68.254745 0 0 1 68.254745 68.254745v170.636862H0.085319V426.600346a68.254745 68.254745 0 0 1 68.254745-68.254745z" fill="#FFFFFF" p-id="8310"></path><path d="M955.651747 392.472973a34.127372 34.127372 0 0 1 34.127372 34.127373v136.509489H34.212692v-136.509489a34.127372 34.127372 0 0 1 34.127372-34.127373h887.311683m0-34.127372H68.340064a68.254745 68.254745 0 0 0-68.254745 68.254745v170.636862h1023.821173V426.600346a68.254745 68.254745 0 0 0-68.254745-68.254745z" fill="#333333" p-id="8311"></path></svg>